<?xml version="1.0" encoding="UTF-8" standalone="no"?>
<svg
   xmlns:dc="http://purl.org/dc/elements/1.1/"
   xmlns:cc="http://creativecommons.org/ns#"
   xmlns:rdf="http://www.w3.org/1999/02/22-rdf-syntax-ns#"
   xmlns:svg="http://www.w3.org/2000/svg"
   xmlns="http://www.w3.org/2000/svg"
   width="141.62218"
   height="19.999994"
   viewBox="0 0 141.62218 19.999994"
   id="logo"
   version="1.1">
  <defs
     id="defs4548" />
  <metadata
     id="metadata4551">
    <rdf:RDF>
      <cc:Work
         rdf:about="">
        <dc:format>image/svg+xml</dc:format>
        <dc:type
           rdf:resource="http://purl.org/dc/dcmitype/StillImage" />
        <dc:title></dc:title>
      </cc:Work>
    </rdf:RDF>
  </metadata>
  <g
     id="layer1"
     transform="matrix(0.61842181,0,0,0.61842181,-53.809988,-238.67932)"
     style="fill:#121212">
    <path
       d="m 103.20379,412.57355 0,-5.632 -9.728001,0 0,-2.336 9.504001,0 0,-5.632 -9.504001,0 0,-2.112 9.728001,0 0,-5.632 -16.192001,0 0,21.344 16.192001,0 z"
       style="font-style:normal;font-variant:normal;font-weight:900;font-stretch:normal;font-size:40px;line-height:125%;font-family:'Proxima Nova';-inkscape-font-specification:'Proxima Nova Heavy';letter-spacing:-2px;word-spacing:0px;fill:#121212;fill-opacity:1;stroke:none;stroke-width:1px;stroke-linecap:butt;stroke-linejoin:miter;stroke-opacity:1"
       id="path4484" />
    <path
       d="m 125.01829,412.57355 0,-21.344 -6.464,0 0,10.112 -7.424,-10.112 -6.656,0 0,21.344 6.464,0 0,-10.816 7.872,10.816 6.208,0 z"
       style="font-style:normal;font-variant:normal;font-weight:900;font-stretch:normal;font-size:40px;line-height:125%;font-family:'Proxima Nova';-inkscape-font-specification:'Proxima Nova Heavy';letter-spacing:-2px;word-spacing:0px;fill:#121212;fill-opacity:1;stroke:none;stroke-width:1px;stroke-linecap:butt;stroke-linejoin:miter;stroke-opacity:1"
       id="path4486" />
    <path
       d="m 135.16229,412.95755 c 5.728,0 9.216,-2.72 9.216,-7.424 0,-7.936 -11.872,-6.208 -11.872,-8.224 0,-0.544 0.352,-0.96 1.632,-0.96 2.016,0 4.416,0.704 6.272,2.112 l 3.456,-4.576 c -2.432,-1.984 -5.568,-2.976 -9.056,-2.976 -5.856,0 -8.864,3.456 -8.864,7.072 0,8.416 11.904,6.336 11.904,8.384 0,0.832 -1.152,1.152 -2.368,1.152 -2.88,0 -5.28,-1.216 -6.88,-2.752 l -3.36,4.8 c 2.272,2.048 5.376,3.392 9.92,3.392 z"
       style="font-style:normal;font-variant:normal;font-weight:900;font-stretch:normal;font-size:40px;line-height:125%;font-family:'Proxima Nova';-inkscape-font-specification:'Proxima Nova Heavy';letter-spacing:-2px;word-spacing:0px;fill:#121212;fill-opacity:1;stroke:none;stroke-width:1px;stroke-linecap:butt;stroke-linejoin:miter;stroke-opacity:1"
       id="path4488" />
    <path
       d="m 194.87157,412.57355 0,-5.632 -9.728,0 0,-2.336 9.504,0 0,-5.632 -9.504,0 0,-2.112 9.728,0 0,-5.632 -16.192,0 0,21.344 16.192,0 z"
       style="font-style:normal;font-variant:normal;font-weight:900;font-stretch:normal;font-size:40px;line-height:125%;font-family:'Proxima Nova';-inkscape-font-specification:'Proxima Nova Heavy';letter-spacing:-2px;word-spacing:0px;fill:#121212;fill-opacity:1;stroke:none;stroke-width:1px;stroke-linecap:butt;stroke-linejoin:miter;stroke-opacity:1"
       id="path4492" />
    <path
       d="m 210.70207,412.57355 0,-5.632 -8.096,0 0,-15.712 -6.464,0 0,21.344 14.56,0 z"
       style="font-style:normal;font-variant:normal;font-weight:900;font-stretch:normal;font-size:40px;line-height:125%;font-family:'Proxima Nova';-inkscape-font-specification:'Proxima Nova Heavy';letter-spacing:-2px;word-spacing:0px;fill:#121212;fill-opacity:1;stroke:none;stroke-width:1px;stroke-linecap:butt;stroke-linejoin:miter;stroke-opacity:1"
       id="path4494" />
    <path
       d="m 227.85907,412.57355 0,-5.632 -9.728,0 0,-2.336 9.504,0 0,-5.632 -9.504,0 0,-2.112 9.728,0 0,-5.632 -16.192,0 0,21.344 16.192,0 z"
       style="font-style:normal;font-variant:normal;font-weight:900;font-stretch:normal;font-size:40px;line-height:125%;font-family:'Proxima Nova';-inkscape-font-specification:'Proxima Nova Heavy';letter-spacing:-2px;word-spacing:0px;fill:#121212;fill-opacity:1;stroke:none;stroke-width:1px;stroke-linecap:butt;stroke-linejoin:miter;stroke-opacity:1"
       id="path4496" />
    <path
       d="m 239.72157,412.95755 c 5.6,0 8.448,-3.392 9.696,-6.24 l -5.568,-2.56 c -0.544,1.664 -2.208,3.104 -4.128,3.104 -3.104,0 -5.184,-2.368 -5.184,-5.344 0,-2.976 2.08,-5.344 5.184,-5.344 1.92,0 3.584,1.44 4.128,3.104 l 5.568,-2.592 c -1.28,-2.944 -4.096,-6.208 -9.696,-6.208 -6.688,0 -11.744,4.448 -11.744,11.04 0,6.56 5.056,11.04 11.744,11.04 z"
       style="font-style:normal;font-variant:normal;font-weight:900;font-stretch:normal;font-size:40px;line-height:125%;font-family:'Proxima Nova';-inkscape-font-specification:'Proxima Nova Heavy';letter-spacing:-2px;word-spacing:0px;fill:#121212;fill-opacity:1;stroke:none;stroke-width:1px;stroke-linecap:butt;stroke-linejoin:miter;stroke-opacity:1"
       id="path4498" />
    <path
       d="m 260.88207,412.57355 0,-15.712 5.696,0 0,-5.632 -17.888,0 0,5.632 5.728,0 0,15.712 6.464,0 z"
       style="font-style:normal;font-variant:normal;font-weight:900;font-stretch:normal;font-size:40px;line-height:125%;font-family:'Proxima Nova';-inkscape-font-specification:'Proxima Nova Heavy';letter-spacing:-2px;word-spacing:0px;fill:#121212;fill-opacity:1;stroke:none;stroke-width:1px;stroke-linecap:butt;stroke-linejoin:miter;stroke-opacity:1"
       id="path4500" />
    <path
       d="m 286.40857,412.57355 -3.872,-7.552 c 1.696,-0.832 3.84,-2.784 3.84,-6.464 0,-4 -2.688,-7.328 -7.68,-7.328 l -11.392,0 0,21.344 6.464,0 0,-6.72 2.336,0 2.944,6.72 7.36,0 z m -8.704,-12.352 -3.936,0 0,-3.36 3.936,0 c 1.088,0 2.112,0.512 2.112,1.664 0,1.184 -1.024,1.696 -2.112,1.696 z"
       style="font-style:normal;font-variant:normal;font-weight:900;font-stretch:normal;font-size:40px;line-height:125%;font-family:'Proxima Nova';-inkscape-font-specification:'Proxima Nova Heavy';letter-spacing:-2px;word-spacing:0px;fill:#121212;fill-opacity:1;stroke:none;stroke-width:1px;stroke-linecap:butt;stroke-linejoin:miter;stroke-opacity:1"
       id="path4502" />
    <path
       d="m 293.85607,412.57355 0,-21.344 -6.464,0 0,21.344 6.464,0 z"
       style="font-style:normal;font-variant:normal;font-weight:900;font-stretch:normal;font-size:40px;line-height:125%;font-family:'Proxima Nova';-inkscape-font-specification:'Proxima Nova Heavy';letter-spacing:-2px;word-spacing:0px;fill:#121212;fill-opacity:1;stroke:none;stroke-width:1px;stroke-linecap:butt;stroke-linejoin:miter;stroke-opacity:1"
       id="path4504" />
    <path
       d="m 306.32157,412.95755 c 5.6,0 8.448,-3.392 9.696,-6.24 l -5.568,-2.56 c -0.544,1.664 -2.208,3.104 -4.128,3.104 -3.104,0 -5.184,-2.368 -5.184,-5.344 0,-2.976 2.08,-5.344 5.184,-5.344 1.92,0 3.584,1.44 4.128,3.104 l 5.568,-2.592 c -1.28,-2.944 -4.096,-6.208 -9.696,-6.208 -6.688,0 -11.744,4.448 -11.744,11.04 0,6.56 5.056,11.04 11.744,11.04 z"
       style="font-style:normal;font-variant:normal;font-weight:900;font-stretch:normal;font-size:40px;line-height:125%;font-family:'Proxima Nova';-inkscape-font-specification:'Proxima Nova Heavy';letter-spacing:-2px;word-spacing:0px;fill:#121212;fill-opacity:1;stroke:none;stroke-width:1px;stroke-linecap:butt;stroke-linejoin:miter;stroke-opacity:1"
       id="path4506" />
    <!--<path
       id="path4508"
       style="fill:#fff;font-style:normal;font-variant:normal;font-weight:900;font-stretch:normal;font-size:40px;line-height:125%;font-family:'Proxima Nova';-inkscape-font-specification:'Proxima Nova Heavy';letter-spacing:-2px;word-spacing:0px;fill-opacity:1;stroke:none;stroke-width:1px;stroke-linecap:butt;stroke-linejoin:miter;stroke-opacity:1"
       d="m 377.27964,411.62463 c 2.32,0 4.28,-1.96 4.28,-4.28 0,-2.32 -1.96,-4.28 -4.28,-4.28 -2.32,0 -4.28,1.96 -4.28,4.28 0,2.32 1.96,4.28 4.28,4.28 z" />-->
    <path
       d="m 165.04759,390.47533 c -7.4e-4,-0.002 0.04,0.005 0.11911,0.0211 0.079,0.0162 0.1267,0.0208 0.27834,0.0618 0.1517,0.0408 0.27505,0.0598 0.49181,0.1312 0.21676,0.0714 0.40577,0.12077 0.67989,0.22743 0.2741,0.10665 0.51701,0.20043 0.84051,0.34591 0.32352,0.14548 0.56015,0.25582 0.91531,0.46074 0.35516,0.20493 0.63779,0.36341 1.0115,0.63176 0.37374,0.26838 0.68032,0.49387 1.05963,0.82714 0.37928,0.33328 0.68566,0.63728 1.0579,1.03458 0.37224,0.39728 0.64234,0.74329 0.9733,1.21797 0.331,0.47468 0.60116,0.88247 0.87399,1.42543 0.27281,0.54297 0.51617,1.01812 0.71581,1.61704 0.19965,0.59896 0.36256,1.16727 0.50747,1.80069 0.14492,0.63343 0.19605,1.22979 0.24757,1.89075 0.0515,0.66095 0.0146,1.2866 -0.0335,1.95572 -0.0481,0.66911 -0.179,1.30652 -0.32808,1.96328 -0.14907,0.65676 -0.3718,1.28868 -0.6174,1.91292 -0.24561,0.62424 -0.56129,1.23083 -0.89356,1.80444 -0.3323,0.5736 -0.73634,1.13485 -1.14126,1.64295 -0.40492,0.50809 -0.88436,1.00876 -1.34515,1.44022 -0.46079,0.43147 -0.99796,0.86324 -1.49627,1.21075 -0.49833,0.34752 -1.07427,0.70988 -1.5911,0.96984 -0.51683,0.25999 -1.09147,0.51627 -1.59878,0.71341 -0.50732,0.19715 -1.12153,0.38726 -1.61341,0.50045 -0.49185,0.11319 -1.05267,0.22717 -1.50878,0.28631 -0.45608,0.0591 -0.98803,0.10943 -1.39764,0.12202 -0.40963,0.0126 -0.84557,0.008 -1.19999,0.002 -0.3544,-0.006 -0.79054,-0.0565 -1.08234,-0.0908 -0.29184,-0.0343 -0.61041,-0.0829 -0.83527,-0.12042 -0.22484,-0.0375 -0.47605,-0.0886 -0.62935,-0.1214 -0.15332,-0.0328 -0.27068,-0.0574 -0.34952,-0.073 -0.0788,-0.0156 -0.11914,-0.0224 -0.11836,-0.0197 0.002,0.004 0.003,0.009 0.006,0.013 0.002,0.004 0.005,0.008 0.008,0.0126 0.003,0.004 0.006,0.008 0.01,0.0123 0.003,0.004 0.007,0.008 0.0114,0.012 0.004,0.004 0.008,0.008 0.0131,0.0117 0.005,0.004 0.01,0.008 0.0146,0.0114 0.005,0.004 0.0105,0.007 0.016,0.0112 0.006,0.004 0.0113,0.007 0.0172,0.011 0.006,0.003 0.012,0.007 0.0183,0.0108 0.006,0.003 0.0126,0.007 0.0192,0.0106 0.006,0.003 0.0132,0.007 0.02,0.0105 0.007,0.003 0.0137,0.007 0.0206,0.0104 0.007,0.003 0.014,0.007 0.0211,0.0102 0.007,0.003 0.0142,0.007 0.0214,0.0103 0.007,0.003 0.0145,0.007 0.0217,0.0102 0.007,0.003 0.0145,0.006 0.0217,0.0102 0.007,0.003 0.0145,0.007 0.0216,0.0102 0.007,0.003 0.0143,0.007 0.0214,0.0102 0.007,0.003 0.0141,0.006 0.021,0.0102 0.007,0.003 0.0137,0.007 0.0204,0.0103 0.006,0.003 0.0133,0.007 0.0198,0.0105 0.006,0.003 0.0127,0.007 0.019,0.0106 0.006,0.003 0.0121,0.007 0.0179,0.0108 0.006,0.003 0.0114,0.007 0.0168,0.0109 0.006,0.004 0.0106,0.007 0.0155,0.0112 0.005,0.004 0.01,0.007 0.0141,0.0114 0.005,0.004 0.009,0.008 0.0126,0.0116 0.004,0.004 0.007,0.008 0.0108,0.0119 0.003,0.004 0.006,0.008 0.009,0.0122 0.002,0.004 0.005,0.008 0.007,0.0125 0.002,0.004 0.003,0.008 0.005,0.0129 8e-4,0.004 0.002,0.009 0.002,0.0133 -7.4e-4,0.004 0.0339,0.0167 0.10232,0.0374 0.0684,0.0207 0.24639,0.0615 0.38127,0.0911 0.13487,0.0296 0.37476,0.0852 0.57248,0.1163 0.19771,0.0311 0.49771,0.0852 0.75399,0.11119 0.25632,0.026 0.61263,0.0634 0.92276,0.0784 0.31015,0.015 0.71718,0.0221 1.07597,0.021 0.35877,-8e-4 0.87742,-0.0401 1.27772,-0.0816 0.40031,-0.0416 0.94863,-0.12528 1.3812,-0.21395 0.43255,-0.0887 0.99919,-0.23388 1.45402,-0.3744 0.45482,-0.1405 1.02534,-0.35943 1.49209,-0.55464 0.46676,-0.19521 1.08115,-0.50631 1.53686,-0.77929 0.45571,-0.273 0.99669,-0.62971 1.44084,-0.95732 0.44415,-0.32763 0.98574,-0.78903 1.38954,-1.18851 0.40379,-0.39947 0.8517,-0.89596 1.22208,-1.34166 0.37036,-0.4457 0.77031,-1.04203 1.07446,-1.54335 0.30418,-0.50133 0.6416,-1.12818 0.86812,-1.67156 0.22652,-0.54336 0.45537,-1.16574 0.62521,-1.72699 0.1699,-0.56124 0.32329,-1.22995 0.40543,-1.80361 0.0821,-0.57363 0.14172,-1.20482 0.1655,-1.7723 0.0238,-0.5675 0.002,-1.20662 -0.0572,-1.75537 -0.0588,-0.54875 -0.15004,-1.12798 -0.25778,-1.64813 -0.10776,-0.52014 -0.25876,-1.07588 -0.43166,-1.55132 -0.17291,-0.47544 -0.36008,-0.96271 -0.56456,-1.39253 -0.20456,-0.42981 -0.42996,-0.85854 -0.65655,-1.23747 -0.22659,-0.37892 -0.47012,-0.74844 -0.70839,-1.0727 -0.23828,-0.32427 -0.47926,-0.63902 -0.71813,-0.90666 -0.23886,-0.26764 -0.47112,-0.51723 -0.68843,-0.73889 -0.21732,-0.22167 -0.42706,-0.4259 -0.62398,-0.59189 -0.19693,-0.16598 -0.36864,-0.32228 -0.52728,-0.44415 -0.15865,-0.12189 -0.29329,-0.22595 -0.40206,-0.31085 -0.10877,-0.0849 -0.19592,-0.14666 -0.25329,-0.18906 -0.0574,-0.0424 -0.0861,-0.0656 -0.0841,-0.0685 0.002,-0.003 0.0345,0.0154 0.0959,0.053 0.0614,0.0378 0.15373,0.0964 0.26683,0.17776 0.1131,0.0814 0.25211,0.1824 0.41518,0.30165 0.16307,0.11924 0.35352,0.27073 0.54679,0.44475 0.19328,0.17398 0.41567,0.369 0.63767,0.59026 0.22202,0.22126 0.46067,0.47475 0.70419,0.74289 0.24352,0.26813 0.49171,0.59311 0.73444,0.91895 0.24275,0.32584 0.49181,0.70802 0.72252,1.08946 0.23073,0.38144 0.45947,0.82493 0.66766,1.25815 0.20819,0.43321 0.42551,0.95045 0.57827,1.43789 0.15278,0.48744 0.31529,1.0382 0.42534,1.56316 0.11003,0.52495 0.1946,1.12248 0.25496,1.67646 0.0603,0.55398 0.0658,1.21744 0.0426,1.79051 -0.0232,0.57304 -0.0978,1.22117 -0.18012,1.8005 -0.0823,0.57932 -0.26394,1.26744 -0.43493,1.83433 -0.17103,0.56688 -0.41773,1.25331 -0.67337,1.78999 -0.25565,0.53668 -0.57994,1.14547 -0.88674,1.65197 -0.30678,0.50648 -0.74622,1.10563 -1.11991,1.556 -0.37369,0.45036 -0.87265,1.0021 -1.29909,1.38575 -0.42644,0.38365 -0.94882,0.81917 -1.397,1.15053 -0.44818,0.33136 -1.06127,0.72536 -1.53376,0.97946 -0.4725,0.25413 -1.058,0.53936 -1.52905,0.73737 -0.47105,0.19801 -1.06814,0.398 -1.52719,0.54105 -0.45904,0.14303 -1.05079,0.26557 -1.48744,0.35656 -0.43664,0.091 -1.00816,0.1484 -1.41237,0.19214 -0.40422,0.0438 -0.94374,0.053 -1.30622,0.0563 -0.36245,0.003 -0.86249,-0.0144 -1.17494,-0.0427 -0.31247,-0.0283 -0.68186,-0.0661 -0.93967,-0.10242 -0.2578,-0.0364 -0.57095,-0.0884 -0.76969,-0.12651 -0.19874,-0.0382 -0.45265,-0.0889 -0.58841,-0.12189 -0.13576,-0.033 -0.23999,-0.058 -0.31046,-0.0746 -0.0705,-0.0166 -0.10716,-0.0247 -0.10784,-0.0238 -0.002,0.003 0.0422,0.0195 0.13179,0.0474 0.0896,0.0278 0.30801,0.0961 0.48623,0.13788 0.17822,0.0418 0.48275,0.12147 0.74498,0.16715 0.26221,0.0457 0.64981,0.11473 0.99057,0.1554 0.34074,0.0406 0.8903,0.10128 1.30423,0.10823 0.41392,0.007 1.03047,0.0195 1.50745,-0.0204 0.47699,-0.0398 1.14692,-0.1069 1.67522,-0.20416 0.52829,-0.0973 1.23166,-0.26906 1.79833,-0.4317 0.56667,-0.16261 1.35204,-0.4809 1.93159,-0.74228 0.57953,-0.2614 1.34653,-0.69951 1.9165,-1.06257 0.56998,-0.36309 1.28597,-0.93354 1.82361,-1.39678 0.53764,-0.46327 1.23336,-1.20441 1.68831,-1.78479 0.45495,-0.58038 0.99866,-1.37535 1.37315,-2.03555 0.3745,-0.6602 0.82626,-1.60826 1.06573,-2.34479 0.23946,-0.7365 0.50906,-1.68173 0.63596,-2.45509 0.12691,-0.77341 0.20651,-1.74975 0.21623,-2.53655 0.01,-0.78684 -0.0905,-1.8134 -0.23413,-2.58392 -0.14362,-0.77059 -0.3993,-1.68719 -0.64964,-2.42028 -0.25027,-0.73312 -0.68037,-1.62145 -1.05761,-2.28044 -0.37725,-0.659 -0.89737,-1.39965 -1.35158,-1.98111 -0.45422,-0.58146 -1.10016,-1.24708 -1.63672,-1.71236 -0.53656,-0.46528 -1.19879,-0.98231 -1.76943,-1.34552 -0.57061,-0.36318 -1.26739,-0.75505 -1.84932,-1.01281 -0.5819,-0.25775 -1.24394,-0.50188 -1.80493,-0.68559 -0.561,-0.18373 -1.24338,-0.3322 -1.7741,-0.42087 -0.53072,-0.0887 -1.12064,-0.15539 -1.59922,-0.18713 -0.4786,-0.0318 -1.00771,-0.0299 -1.42256,-0.0167 -0.41488,0.0131 -0.87156,0.052 -1.21312,0.0958 -0.34155,0.0438 -0.68192,0.0987 -0.94544,0.14457 -0.26352,0.0459 -0.52083,0.1069 -0.70112,0.1459 -0.18032,0.039 -0.35217,0.085 -0.44482,0.10751 -0.0927,0.0224 -0.14106,0.0318 -0.14226,0.0272 -0.002,-0.005 0.0449,-0.0226 0.1353,-0.0531 0.0904,-0.0306 0.26214,-0.0849 0.44072,-0.13121 0.17858,-0.0463 0.4373,-0.11494 0.69953,-0.16742 0.26221,-0.0525 0.60541,-0.11413 0.94599,-0.16383 0.34059,-0.0498 0.80636,-0.0949 1.22078,-0.11323 0.41441,-0.0183 0.95475,-0.025 1.43331,0.002 0.47853,0.0272 1.08145,0.0909 1.6124,0.17564 0.53091,0.0847 1.23453,0.23413 1.79613,0.41444 0.56158,0.18031 1.23863,0.42634 1.82117,0.68117 0.58254,0.25486 1.30165,0.65451 1.87303,1.01524 0.57135,0.36073 1.25497,0.88927 1.79234,1.35244 0.53737,0.4632 1.20881,1.14976 1.6639,1.72946 0.4551,0.5797 0.992,1.33892 1.37013,1.99632 0.37813,0.65742 0.77079,1.52762 1.05678,2.24651 0.28597,0.71889 0.53827,1.7328 0.68289,2.50221 0.14461,0.7693 0.25351,1.83175 0.24494,2.61753 -0.009,0.78567 -0.0857,1.79043 -0.21126,2.56281 -0.12559,0.77237 -0.39655,1.7469 -0.6345,2.48257 -0.23797,0.73565 -0.69833,1.72282 -1.07106,2.38247 -0.37273,0.65966 -0.92693,1.48268 -1.37989,2.06281 -0.45297,0.58014 -1.13083,1.27537 -1.64327,1.76421 -0.51244,0.48883 -1.33094,1.1139 -1.89856,1.47777 -0.56763,0.36387 -1.35654,0.82446 -1.93366,1.08725 -0.57711,0.26278 -1.31163,0.54745 -1.86738,0.73908 -0.55574,0.19163 -1.37108,0.37707 -1.89709,0.47708 -0.52601,0.10001 -1.21655,0.17972 -1.69146,0.22305 -0.47487,0.0434 -1.11445,0.0426 -1.52657,0.0398 -0.41211,-0.002 -0.98728,-0.0528 -1.32668,-0.0884 -0.33938,-0.0357 -0.74042,-0.0971 -1.00161,-0.13707 -0.26119,-0.0399 -0.58051,-0.11195 -0.7581,-0.14709 -0.1776,-0.0352 -0.41241,-0.0956 -0.50181,-0.1161 -0.0894,-0.0205 -0.13428,-0.0287 -0.13162,-0.024 0.006,0.009 0.0638,0.0338 0.17218,0.0723 0.10838,0.0386 0.3717,0.11457 0.57962,0.16971 0.20788,0.0554 0.56958,0.13936 0.87187,0.20015 0.30231,0.0608 0.86427,0.155 1.25727,0.19147 0.393,0.0365 1.04256,0.0923 1.51663,0.0875 0.47406,-0.005 1.19929,-0.0281 1.74252,-0.0885 0.54323,-0.0604 1.43227,-0.19311 2.02419,-0.34925 0.59188,-0.15618 1.40474,-0.4103 2.03373,-0.64337 0.62894,-0.23321 1.63233,-0.72349 2.24949,-1.09914 0.61706,-0.37583 1.48812,-0.97891 2.07917,-1.46815 0.59106,-0.48926 1.45883,-1.33635 1.96774,-1.96025 0.50893,-0.62389 1.16426,-1.56193 1.59051,-2.28116 0.42624,-0.71926 0.94282,-1.89862 1.22397,-2.71151 0.28113,-0.8128 0.5921,-2.08214 0.70634,-2.95171 0.11427,-0.86965 0.18351,-2.17933 0.12271,-3.06457 -0.0608,-0.88522 -0.24992,-2.17789 -0.48174,-3.03784 -0.23191,-0.85979 -0.67136,-2.08028 -1.06112,-2.87687 -0.38978,-0.79657 -1.0559,-1.89758 -1.58362,-2.59691 -0.52775,-0.69943 -1.38576,-1.6433 -2.0252,-2.21631 -0.63944,-0.57303 -1.64468,-1.33455 -2.36325,-1.75819 -0.71855,-0.42365 -1.73668,-0.91768 -2.4816,-1.21666 -0.74499,-0.29895 -1.90264,-0.62666 -2.65483,-0.76288 -0.75215,-0.13624 -1.79494,-0.25802 -2.51373,-0.27869 -0.71884,-0.0206 -1.71199,0.033 -2.37418,0.11243 -0.66218,0.0794 -1.57535,0.26828 -2.16196,0.42742 -0.58661,0.15913 -1.40597,0.43586 -1.9031,0.65122 -0.49715,0.21532 -1.12555,0.51604 -1.53599,0.74252 -0.41045,0.22649 -0.93672,0.5537 -1.25773,0.7732 -0.32101,0.21953 -0.75535,0.53472 -0.98717,0.72836 -0.23183,0.19363 -0.50214,0.41868 -0.65537,0.5598 -0.15326,0.14105 -0.27068,0.24926 -0.34983,0.32216 -0.0791,0.073 -0.18388,0.18116 -0.18388,0.18116 l 0.76634,-0.71282 0.73856,-0.59996 0.77221,-0.55592 0.88591,-0.557 0.83864,-0.45043 0.86361,-0.40119 0.88586,-0.35063 1.001,-0.31767 0.9259,-0.23181 0.93863,-0.17738 1.04868,-0.12516 0.95638,-0.0515 0.95861,0.006 1.06043,0.0742 0.95181,0.13332 0.94283,0.18969 0.93051,0.24531 0.91474,0.29971 0.99045,0.40276 0.86745,0.41807 0.84096,0.46882 0.89759,0.57895 0.77026,0.57638 0.73462,0.62063 0.69668,0.66257 0.71999,0.78514 0.60283,0.74815 0.55832,0.78187 0.56038,0.90547 0.45142,0.84853 0.40171,0.87352 0.38271,0.99656 0.28431,0.92016 0.23041,0.93584 0.17551,0.94855 0.11992,1.0683 0.0482,0.96607 -0.009,0.96818 -0.0834,1.07908 -0.13864,0.96083 -0.19548,0.95159 -0.25154,0.93898 -0.35031,1.03026 -0.37332,0.89829 -0.42585,0.87447 -0.47688,0.84753 -0.59592,0.90944 -0.58519,0.77551 -0.62965,0.73938 -0.75432,0.77922 -0.72136,0.64892 -0.75772,0.6057 -0.79155,0.56072 -0.92504,0.5638 -0.8584,0.4524 -0.88342,0.40224 -1.01647,0.38233 -0.93012,0.28339 -0.94577,0.22903 -1.07597,0.18627 -0.97046,0.10204 -0.97575,0.0448 -0.97775,-0.013 -1.0977,-0.0926 c 0,0 2.76916,0.37626 3.76951,0.2618 0.69143,-0.0791 1.82978,-0.30368 2.63273,-0.51712 0.80308,-0.21347 2.24431,-0.77214 3.07881,-1.22709 0.83438,-0.45498 2.11213,-1.28466 2.92447,-1.95657 0.8123,-0.67189 2.0146,-1.96093 2.69261,-2.88031 0.67807,-0.91934 1.69136,-2.738 2.13179,-4.00971 0.44042,-1.27149 0.92185,-3.46452 0.96722,-4.93694 0.0454,-1.47229 -0.23142,-3.89685 -0.69818,-5.34817 -0.46675,-1.45127 -1.52012,-3.63872 -2.42332,-4.83633 -0.90318,-1.19767 -2.6298,-2.94755 -3.88262,-3.77295 -1.25279,-0.82529 -3.27289,-1.79907 -4.52595,-2.15948 -1.25307,-0.36039 -3.11856,-0.64226 -4.06934,-0.66891 -0.95083,-0.0266 -2.07105,0.0585 -2.15087,0.0682 -0.0798,0.01 -0.57528,0.0586 -1.12153,0.14318 -0.54622,0.0846 -1.62061,0.33057 -2.38254,0.56082 -0.76192,0.23026 -2.04519,0.78242 -2.88816,1.22225 -0.84287,0.43984 -2.18815,1.37555 -2.94018,2.03018 -0.75201,0.65463 -1.80835,1.80628 -2.45065,2.63102 -0.64232,0.82466 -1.48676,2.36728 -1.90758,3.32418 -0.42079,0.95691 -0.93188,2.645 -1.09591,3.62866 -0.16405,0.98358 -0.2882,2.53018 -0.26234,3.43066 0.0258,0.9004 0.20688,2.36603 0.39391,3.19682 0.187,0.83078 0.61704,2.19271 0.9306,2.91147 0.31356,0.71884 0.87413,1.79162 1.24127,2.3862 0.36713,0.59459 1.04438,1.50055 1.42612,1.95728 0.38173,0.45675 0.99033,1.07648 1.32756,1.40903 1.39493,0.97852 1.05253,0.56963 2.3345,1.06 1.86203,0.73151 4.32231,-0.0591 4.74433,-0.87859 0.42224,-0.81949 -0.12464,-3.03121 -2.37077,-5.26744 -0.33975,-0.31193 -0.48557,-0.42931 -0.87729,-0.86451 -0.39172,-0.4352 -0.48891,-0.53489 -0.87614,-1.11218 -0.38723,-0.57726 -0.50697,-0.78896 -0.85072,-1.50027 -0.34373,-0.7113 -0.38569,-0.87037 -0.61054,-1.71098 -0.22486,-0.84061 -0.25073,-1.06639 -0.3162,-1.99971 -0.0655,-0.93333 -0.0874,-1.09667 0.0968,-2.16172 0.18419,-1.06504 0.1875,-1.3541 0.66225,-2.42106 0.47476,-1.06695 0.60784,-1.41039 1.34484,-2.35295 0.737,-0.94256 1.02144,-1.22755 1.93726,-1.95068 0.91578,-0.72313 1.15632,-0.89204 2.22264,-1.32719 1.06632,-0.43515 1.40769,-0.59061 2.38745,-0.73906 0.97975,-0.14844 1.32449,-0.21294 2.03758,-0.18315 0.7131,0.0298 0.97603,0.0434 1.03377,0.0506 0.0578,0.007 0.26312,0.006 0.79703,0.0978 0.53391,0.0911 0.86149,0.11551 1.65934,0.37936 0.79785,0.26383 1.23805,0.40767 2.15501,0.93174 0.91697,0.52407 1.3836,0.84949 2.23227,1.66149 0.84865,0.81201 1.27949,1.29564 1.91397,2.40218 0.63451,1.10654 0.99121,1.82294 1.29662,3.10997 0.30542,1.28697 0.44594,2.16463 0.36314,3.47825 -0.0828,1.3135 -0.26844,2.27726 -0.65719,3.4714 -0.38875,1.19403 -0.82274,2.042 -1.52041,3.03144 -0.69766,0.98943 -1.37204,1.73423 -2.22852,2.47694 -0.85652,0.74262 -1.67909,1.26085 -2.59005,1.73005 0.06,-0.008 0.14141,-0.0282 0.24309,-0.0585 0.10168,-0.0304 0.20834,-0.0674 0.3466,-0.12502 0.13827,-0.0577 0.28492,-0.11424 0.4549,-0.20113 0.17,-0.0869 0.34918,-0.1702 0.54603,-0.28781 0.19687,-0.11762 0.40068,-0.23342 0.61944,-0.38279 0.21889,-0.14924 0.43896,-0.30227 0.67499,-0.48368 0.23605,-0.18143 0.46394,-0.37487 0.71247,-0.58844 0.2485,-0.21355 0.46525,-0.4375 0.70941,-0.69488 0.24418,-0.25739 0.46992,-0.50312 0.70152,-0.80322 0.23159,-0.3001 0.44965,-0.6009 0.67735,-0.93039 0.22769,-0.3295 0.40278,-0.65574 0.60467,-1.02302 0.20188,-0.36728 0.35594,-0.71665 0.52527,-1.11718 0.16933,-0.40053 0.29581,-0.76997 0.42686,-1.19813 0.13103,-0.42816 0.22535,-0.81308 0.31369,-1.2623 0.0884,-0.4492 0.14412,-0.84468 0.18696,-1.30775 0.0429,-0.46305 0.0545,-0.86289 0.0504,-1.33227 -0.004,-0.46938 -0.0392,-0.8659 -0.0902,-1.33403 -0.051,-0.46815 -0.13269,-0.8532 -0.22912,-1.31277 -0.0964,-0.45956 -0.22206,-0.82515 -0.36132,-1.26923 -0.13934,-0.44406 -0.26906,-0.74826 -0.46764,-1.16138 -0.19859,-0.41312 -0.35293,-0.73714 -0.58492,-1.12096 -0.23198,-0.38382 -0.41034,-0.67526 -0.67023,-1.02503 -0.25991,-0.34974 -0.45247,-0.60702 -0.73417,-0.91878 -0.2817,-0.31176 -0.47797,-0.53609 -0.7747,-0.8069 -0.29675,-0.27081 -0.54788,-0.48774 -0.84089,-0.73042 -0.29301,-0.24268 -0.49865,-0.37595 -0.79384,-0.57552 -0.2952,-0.19958 -0.47139,-0.3176 -0.76097,-0.47451 -0.28958,-0.15691 -0.50628,-0.27429 -0.77618,-0.40418 -0.2699,-0.12991 -0.46646,-0.21339 -0.71214,-0.31763 -0.24566,-0.10424 -0.41489,-0.16009 -0.63181,-0.24054 -0.21692,-0.0804 -0.35225,-0.11633 -0.53597,-0.17541 -0.18372,-0.0591 -0.27961,-0.084 -0.42585,-0.12472 l 2e-5,-1.3e-4"
       id="path3342-3"
       style="fill:#121212" />
  </g>
  <path
     id="path3354"
     d="m 0.11649298,9.8668623 0,-6.490323 4.90934692,0 4.9093469,0 0,1.6641854 0,1.6641854 -2.9955337,0 -2.9955337,0 0,0.7488834 0,0.7488834 2.9123244,0 2.9123245,0 0,1.6641854 0,1.6641857 -2.9123245,0 -2.9123244,0 0,0.748883 0,0.748884 2.9955337,0 2.9955337,0 0,1.664185 0,1.664185 -4.9093469,0 -4.90934692,0 0,-6.4903227 z"
     style="opacity:0;fill:#121212;fill-opacity:1" />
  <path
     id="path3356"
     d="m 10.933698,9.8668623 0,-6.490323 1.985275,0 1.985274,0 2.191866,2.9960195 c 1.205527,1.6478106 2.25925,3.0376647 2.341608,3.0885645 0.08665,0.053555 0.149741,-1.2086816 0.149741,-2.9960195 l 0,-3.0885645 1.913813,0 1.913814,0 0,6.490323 0,6.4903227 -1.872209,-0.0034 -1.872209,-0.0034 -2.413068,-3.335059 -2.413069,-3.3350589 -0.04505,3.3384419 -0.04505,3.338441 -1.910367,0 -1.910368,0 0,-6.4903227 z"
     style="opacity:0;fill:#121212;fill-opacity:1" />
  <path
     id="path3358"
     d="m 10.933698,9.8668623 0,-6.490323 1.985275,0 1.985274,0 2.191866,2.9960195 c 1.205527,1.6478106 2.25925,3.0376647 2.341608,3.0885645 0.08665,0.053555 0.149741,-1.2086816 0.149741,-2.9960195 l 0,-3.0885645 1.913813,0 1.913814,0 0,6.490323 0,6.4903227 -1.872209,-0.0034 -1.872209,-0.0034 -2.413068,-3.335059 -2.413069,-3.3350589 -0.04505,3.3384419 -0.04505,3.338441 -1.910367,0 -1.910368,0 0,-6.4903227 z"
     style="opacity:0;fill:#121212;fill-opacity:1" />
  <path
     id="path3360"
     d="m 10.933698,9.8668623 0,-6.490323 1.985275,0 1.985274,0 2.191866,2.9960195 c 1.205527,1.6478106 2.25925,3.0376647 2.341608,3.0885645 0.08665,0.053555 0.149741,-1.2086816 0.149741,-2.9960195 l 0,-3.0885645 1.913813,0 1.913814,0 0,6.490323 0,6.4903227 -1.872209,-0.0034 -1.872209,-0.0034 -2.413068,-3.335059 -2.413069,-3.3350589 -0.04505,3.3384419 -0.04505,3.338441 -1.910367,0 -1.910368,0 0,-6.4903227 z"
     style="opacity:0;fill:#121212;fill-opacity:1" />
  <path
     id="path3362"
     d="m 10.933698,9.8668623 0,-6.490323 1.985275,0 1.985274,0 2.191866,2.9960195 c 1.205527,1.6478106 2.25925,3.0376647 2.341608,3.0885645 0.08665,0.053555 0.149741,-1.2086816 0.149741,-2.9960195 l 0,-3.0885645 1.913813,0 1.913814,0 0,6.490323 0,6.4903227 -1.872209,-0.0034 -1.872209,-0.0034 -2.413068,-3.335059 -2.413069,-3.3350589 -0.04505,3.3384419 -0.04505,3.338441 -1.910367,0 -1.910368,0 0,-6.4903227 z"
     style="opacity:0;fill:#121212;fill-opacity:1" />
  <path
     id="path4164"
     d="m 10.933698,9.8668623 0,-6.490323 1.985275,0 1.985274,0 2.191866,2.9960195 c 1.205527,1.6478106 2.25925,3.0376647 2.341608,3.0885645 0.08665,0.053555 0.149741,-1.2086816 0.149741,-2.9960195 l 0,-3.0885645 1.913813,0 1.913814,0 0,6.490323 0,6.4903227 -1.872209,-0.0034 -1.872209,-0.0034 -2.413068,-3.335059 -2.413069,-3.3350589 -0.04505,3.3384419 -0.04505,3.338441 -1.910367,0 -1.910368,0 0,-6.4903227 z"
     style="opacity:0;fill:#121212;fill-opacity:1" />
  <path
     id="path4166"
     d="m 0.11649298,9.8668623 0,-6.490323 4.90934692,0 4.9093469,0 0,1.6641854 0,1.6641854 -2.9955337,0 -2.9955337,0 0,0.7488834 0,0.7488834 2.9123244,0 2.9123245,0 0,1.6641854 0,1.6641857 -2.9123245,0 -2.9123244,0 0,0.748883 0,0.748884 2.9955337,0 2.9955337,0 0,1.664185 0,1.664185 -4.9093469,0 -4.90934692,0 0,-6.4903227 z"
     style="opacity:0;fill:#121212;fill-opacity:1" />
  <path
     id="path4168"
     d="m 10.933698,9.8668623 0,-6.490323 1.985275,0 1.985274,0 2.191866,2.9960195 c 1.205527,1.6478106 2.25925,3.0376647 2.341608,3.0885645 0.08665,0.053555 0.149741,-1.2086816 0.149741,-2.9960195 l 0,-3.0885645 1.913813,0 1.913814,0 0,6.490323 0,6.4903227 -1.872209,-0.0034 -1.872209,-0.0034 -2.413068,-3.335059 -2.413069,-3.3350589 -0.04505,3.3384419 -0.04505,3.338441 -1.910367,0 -1.910368,0 0,-6.4903227 z"
     style="opacity:0;fill:#121212;fill-opacity:1" />
</svg>
